
<svg width="177" height="40" viewBox="0 0 177 40" fill="none" xmlns="http://www.w3.org/2000/svg">
<path fill-rule="evenodd" clip-rule="evenodd" d="M34.5553 9.97525L17.2776 0L0 9.97525V29.9258L17.2776 39.901L34.5553 29.9258V9.97525ZM31.7598 10.371L18.1462 18.2308V2.51124L31.7598 10.371ZM16.4057 9.77457H3.82862L16.4057 2.5132V9.77457ZM1.74052 26.974V11.5151H15.3163L1.74052 26.974ZM32.8148 28.1293L18.6487 19.9505L32.8148 11.7717V28.1293ZM16.4057 28.3859L2.81701 28.3859L16.4057 12.9123L16.4057 28.3859ZM18.1462 37.3898V21.6702L31.7598 29.53L18.1462 37.3898ZM16.4057 37.3878L3.82855 30.1264L16.4057 30.1264V37.3878Z" fill="url(#paint0_linear_1_1085)"/>
<path d="M60.3189 14.0007C59.9674 13.2976 59.4265 12.6757 58.7505 12.1619C58.1016 11.6752 57.3174 11.2966 56.4251 11.0533C55.5598 10.7829 54.5863 10.6747 53.5317 10.6747H45.8252V29.6029H48.9349V22.0316H53.5317C54.5863 22.0316 55.5598 21.8964 56.4251 21.6531C57.3174 21.3827 58.1016 21.0041 58.7505 20.5174C59.4265 20.0036 59.9674 19.3817 60.3189 18.6786C60.6974 17.9756 60.8597 17.1914 60.8597 16.3532C60.8597 15.5149 60.6974 14.7307 60.3189 14.0007ZM57.4796 17.4889C57.3174 17.8134 57.074 18.0838 56.7495 18.3271C56.4251 18.5975 55.9924 18.8138 55.4516 18.949C54.9108 19.1113 54.2618 19.1924 53.5317 19.1924H48.9349V13.5139H53.5317C54.2618 13.5139 54.9108 13.5951 55.4516 13.7303C55.9924 13.8925 56.4251 14.1088 56.7766 14.3522C57.1011 14.5955 57.3174 14.866 57.4796 15.1904C57.6689 15.542 57.75 15.9205 57.75 16.3532C57.75 16.7588 57.6689 17.1373 57.4796 17.4889Z" fill="white"/>
<path d="M69.0366 15.596C64.8454 15.596 61.4383 18.7598 61.4383 22.6536C61.4383 26.5474 64.8454 29.7111 69.0366 29.7111C73.2549 29.7111 76.662 26.5474 76.662 22.6536C76.662 18.7598 73.2549 15.596 69.0366 15.596ZM69.0366 26.8719C66.576 26.8719 64.5479 24.979 64.5479 22.6536C64.5479 20.3281 66.576 18.4353 69.0366 18.4353C71.5244 18.4353 73.5524 20.3281 73.5524 22.6536C73.5524 24.979 71.5244 26.8719 69.0366 26.8719Z" fill="white"/>
<path d="M81.9651 29.4137V10.4854H78.8555V29.4137H81.9651Z" fill="white"/>
<path d="M99.0202 15.9205H95.6401L94.5585 18.246L91.2055 25.8984L86.9602 15.9205H83.5801L89.6101 29.0081L86.9331 34.8488H90.3132L98.885 16.1909L99.0202 15.9205Z" fill="white"/>
<path d="M113.62 29.4137L113.593 22.0587C113.62 20.7067 113.404 19.1113 112.403 17.7052C111.917 17.0292 111.187 16.4073 110.321 16.0016C109.483 15.596 108.483 15.4608 107.617 15.4879C107.185 15.5149 106.725 15.569 106.292 15.6772C105.833 15.8124 105.4 15.9746 105.021 16.1909C104.535 16.4884 104.102 16.8399 103.751 17.2455V10.4854H100.641V29.4137H103.751V22.5454C103.778 22.3832 103.778 22.2209 103.805 22.0587C103.859 21.4638 103.994 20.923 104.21 20.4092C104.454 19.9225 104.751 19.4628 105.13 19.1113C105.481 18.7868 105.887 18.5705 106.319 18.4353C106.725 18.3271 107.158 18.273 107.617 18.3271C108.537 18.4082 109.186 18.7327 109.699 19.3817C109.943 19.7062 110.159 20.1118 110.294 20.5715C110.43 21.0312 110.484 21.4908 110.484 22.0587V29.4137H113.62Z" fill="white"/>
<path d="M130.146 23.8163H130.687C130.768 23.4377 130.795 23.0592 130.795 22.6536C130.795 18.7598 127.388 15.596 123.17 15.596C118.978 15.596 115.571 18.7598 115.571 22.6536C115.571 26.5474 119.222 29.7111 123.683 29.7111C126.468 29.7111 128.983 28.4943 130.47 26.5474L127.577 25.3306C126.658 26.277 125.225 26.8719 123.683 26.8719C121.412 26.8719 119.492 25.5739 118.87 23.8163H130.146ZM118.87 21.4908C119.411 19.7332 121.142 18.4353 123.17 18.4353C125.225 18.4353 126.955 19.7332 127.496 21.4908H118.87Z" fill="white"/>
<path d="M145.021 10.4854V17.7593C144.426 17.1644 143.696 16.6236 142.885 16.245C141.993 15.8394 140.992 15.6231 139.965 15.596C138.964 15.596 137.937 15.7583 136.99 16.1098C136.044 16.4884 135.206 17.0292 134.503 17.6781C133.124 19.0031 132.339 20.8419 132.366 22.6536C132.339 24.4653 133.124 26.304 134.503 27.629C135.206 28.305 136.044 28.8458 136.99 29.1973C137.937 29.5759 138.964 29.7381 139.965 29.7111C140.992 29.6841 141.993 29.4677 142.885 29.0621C143.696 28.6836 144.426 28.1698 145.021 27.5479V29.4137H148.131V10.4854H145.021ZM143.372 25.8443C142.885 26.2229 142.317 26.4933 141.749 26.6556C141.155 26.8178 140.56 26.8989 139.965 26.8719C138.775 26.8178 137.639 26.3851 136.801 25.601C135.963 24.8438 135.476 23.7622 135.476 22.6536C135.476 21.5449 135.963 20.4633 136.801 19.7062C137.639 18.922 138.775 18.4894 139.965 18.4353C140.56 18.4082 141.155 18.4894 141.749 18.6516C142.317 18.8138 142.885 19.1113 143.372 19.4899C144.372 20.2199 145.021 21.4097 145.021 22.6536C145.021 23.8974 144.372 25.0872 143.372 25.8443Z" fill="white"/>
<path d="M159.435 15.569C158.975 15.5149 158.515 15.4879 158.083 15.4879C157.191 15.542 156.271 15.7853 155.514 16.245C154.919 16.5695 154.459 17.0292 154.108 17.5159V15.8935H150.998V29.4137H154.108V22.5725C154.108 22.4102 154.135 22.2209 154.162 22.0587C154.189 21.4638 154.324 20.896 154.541 20.3822C154.784 19.8684 155.108 19.3817 155.487 19.0572C155.893 18.7057 156.325 18.5164 156.758 18.4082C157.191 18.3001 157.596 18.273 158.083 18.3271C158.543 18.3542 158.921 18.4623 159.246 18.6516C159.354 18.7057 159.435 18.7598 159.543 18.8138L160.246 15.7853C159.976 15.7042 159.705 15.6231 159.435 15.569Z" fill="white"/>
<path d="M173.25 15.8935V17.7593C172.655 17.1644 171.925 16.6236 171.114 16.245C170.221 15.8394 169.221 15.6231 168.193 15.596C167.193 15.596 166.165 15.7583 165.219 16.1098C164.273 16.4884 163.434 17.0292 162.731 17.6781C161.352 19.0031 160.568 20.8419 160.595 22.6536C160.568 24.4653 161.352 26.304 162.731 27.629C163.434 28.305 164.273 28.8458 165.219 29.1973C166.165 29.5489 167.193 29.7381 168.193 29.7111C169.221 29.6841 170.221 29.4677 171.114 29.0621C171.925 28.6836 172.655 28.1698 173.25 27.5479V29.4137H176.36V15.8935H173.25ZM171.6 25.8443C171.114 26.2229 170.546 26.4933 169.978 26.6556C169.383 26.8178 168.788 26.8989 168.193 26.8719C167.004 26.8178 165.868 26.3851 165.03 25.601C164.191 24.8438 163.705 23.7622 163.705 22.6536C163.705 21.5449 164.191 20.4633 165.03 19.7062C165.868 18.922 167.004 18.4894 168.193 18.4353C168.788 18.4082 169.383 18.4894 169.978 18.6516C170.546 18.8138 171.114 19.1113 171.6 19.4899C172.601 20.2199 173.25 21.4097 173.25 22.6536C173.25 23.8974 172.601 25.0872 171.6 25.8443Z" fill="white"/>
<defs>
<linearGradient id="paint0_linear_1_1085" x1="-8.34957" y1="34.1747" x2="17.2485" y2="-7.8417" gradientUnits="userSpaceOnUse">
<stop stop-color="#0CFFF0"/>
<stop offset="1" stop-color="#0CFFA7"/>
</linearGradient>
</defs>
</svg>
